<?xml version="1.0" encoding="UTF-8" standalone="no"?>
<svg
   xml:space="preserve"
   width="26"
   height="26"
   style="isolation:isolate"
   viewBox="66.993 897.484 26 26"
   version="1.1"
   id="svg12"
   xmlns="http://www.w3.org/2000/svg"
   xmlns:svg="http://www.w3.org/2000/svg"><defs
     id="defs3" /><linearGradient
     id="a"
     x1="0.148"
     x2="0.84500003"
     y1="0.85100001"
     y2="0.154"
     gradientTransform="matrix(26.301,0,0,26.331,90.674,911.757)"
     gradientUnits="userSpaceOnUse"><stop
       offset="0"
       stop-color="#004ba6"
       style="stop-color:#0071ff;stop-opacity:1"
       id="stop5" /><stop
       offset="1"
       stop-color="#00bfe1"
       style="stop-color:#00bfe1;stop-opacity:1"
       id="stop7" /></linearGradient><path
     d="m 85.649578,901.56318 c 5.101503,0 8.005084,4.37454 6.484758,9.76887 -1.521565,5.39431 -6.890731,9.76872 -11.992373,9.76872 -3.792805,0 -6.369841,-2.41917 -6.817416,-5.87725 0.0037,-0.42454 0.07268,-0.86364 0.240498,-1.31251 1.438219,-3.84004 7.346352,-6.23811 12.718963,-5.53076 l 0.07863,0.01 v -0.93165 -0.30634 -0.58423 c -0.55701,-0.14111 -1.142728,-0.25155 -1.753907,-0.33239 -3.134376,-0.41277 -6.358847,0.0705 -9.081906,1.19216 2.397757,-3.45175 6.334051,-5.86455 10.122751,-5.86455 z"
     style="fill:#70a5c5;fill-rule:evenodd;stroke-width:0.273658"
     id="path266" /><path
     d="m 83.809684,898.10784 c 2.996372,0 5.423168,1.08175 7.027941,2.87925 -1.463239,-1.08766 -3.368817,-1.71306 -5.608099,-1.71306 -6.605599,0 -13.608107,5.43946 -15.637033,12.14694 -1.509109,4.98834 0.157733,9.27456 3.828209,11.14429 -4.846267,-1.41337 -7.295877,-6.25942 -5.595807,-12.0199 2.027023,-6.86787 9.185171,-12.43752 15.984789,-12.43752 z"
     style="fill:#70a5c5;fill-rule:evenodd;stroke-width:0.273658"
     id="path268" /></svg>
