<?xml version="1.0" encoding="UTF-8" standalone="no"?>
<svg
   version="1.1"
   width="595.27557pt"
   height="841.88977pt"
   id="svg281"
   viewBox="0 0 595.27557 841.88977"
   sodipodi:docname="Fator_Contabilidade.cdr"
   inkscape:export-filename="fatordesk\rustdesk-banner.svg"
   inkscape:export-xdpi="96"
   inkscape:export-ydpi="96"
   xmlns:inkscape="http://www.inkscape.org/namespaces/inkscape"
   xmlns:sodipodi="http://sodipodi.sourceforge.net/DTD/sodipodi-0.dtd"
   xmlns="http://www.w3.org/2000/svg"
   xmlns:svg="http://www.w3.org/2000/svg">
  <defs
     id="defs285" />
  <sodipodi:namedview
     id="namedview283"
     pagecolor="#ffffff"
     bordercolor="#000000"
     borderopacity="0.25"
     inkscape:showpageshadow="2"
     inkscape:pageopacity="0.0"
     inkscape:pagecheckerboard="0"
     inkscape:deskcolor="#d1d1d1"
     showgrid="false"
     inkscape:document-units="pt" />
  <g
     id="Layer1000">
    <path
       d="m 221.2549,369.3574 c 0,-5.1304 0.3982,-8.8871 1.2081,-11.2889 0.7979,-2.4015 2.1634,-4.3642 4.0972,-5.8779 1.9823,-1.5515 4.6292,-2.7009 7.9407,-3.4484 3.2995,-0.7478 7.4208,-1.1214 12.3517,-1.1214 h 16.6787 v 7.0087 h -17.5972 c -4.7497,0 -8.1944,0.7755 -10.3575,2.3176 -2.1634,1.542 -3.2754,4.0371 -3.348,7.4854 h 31.3027 v 6.9529 H 232.2286 V 387.87 h -10.9737 z m 70.6575,-13.7372 -7.6144,15.4942 h 15.5063 z m -5.3785,-7.9994 h 11.6028 L 320.3385,387.87 H 308.156 l -4.7741,-9.5789 h -22.625 l -4.6412,9.5789 h -11.6143 z m 45.9057,7.0648 h -16.8239 v -7.0089 h 45.0442 v 7.0089 h -16.884 V 387.87 h -11.3363 z m 33.9043,12.6533 c 0,-6.9248 2.1391,-12.0739 6.4174,-15.4474 4.2908,-3.3735 10.8048,-5.0652 19.5551,-5.0652 8.8225,0 15.3493,1.7101 19.5792,5.1213 4.2423,3.411 6.3572,8.6814 6.3572,15.8023 0,7.1116 -2.1149,12.3917 -6.3572,15.8213 -4.2299,3.4297 -10.7567,5.1491 -19.5792,5.1491 -8.9195,0 -15.4701,-1.7288 -19.6759,-5.1772 -4.1938,-3.4483 -6.2966,-8.8497 -6.2966,-16.2042 z m 25.9725,-13.6159 c -4.6894,0 -8.206,1.1307 -10.5268,3.3925 -2.3207,2.2708 -3.4809,5.6911 -3.4809,10.2702 0,4.9714 1.1239,8.6068 3.3843,10.9148 2.2479,2.3082 5.7889,3.467 10.6234,3.467 4.7616,0 8.291,-1.1494 10.5996,-3.439 2.296,-2.2895 3.4443,-5.8218 3.4443,-10.5879 0,-4.7753 -1.1483,-8.3078 -3.4443,-10.5974 -2.3086,-2.2801 -5.838,-3.4202 -10.5996,-3.4202 z m 61.5328,1.0749 h -13.4156 v 10.1205 h 13.4156 c 3.6377,0 6.1636,-0.383 7.5775,-1.1495 1.4142,-0.7662 2.1272,-2.0746 2.1272,-3.9342 0,-1.8504 -0.6889,-3.1493 -2.0665,-3.9061 -1.3898,-0.7571 -3.928,-1.1307 -7.6382,-1.1307 z m -24.3536,-7.1771 h 26.9399 c 6.2847,0 10.8893,0.9717 13.8141,2.9248 2.9248,1.9534 4.3872,5.0185 4.3872,9.1769 0,3.0841 -0.9063,5.5978 -2.7071,7.5509 -1.8128,1.9531 -4.4113,3.2148 -7.8075,3.7755 L 477.1145,387.87 H 464.7988 L 453.3171,372.0393 H 440.4336 V 387.87 h -10.938 z"
       style="fill:#003a81;fill-rule:evenodd"
       id="path262" />
    <path
       d="m 230.0287,395.657 -0.1395,1.0862 c -0.042,-0.01 -0.095,-0.0232 -0.1636,-0.0379 -1.0165,-0.239 -1.8122,-0.3578 -2.3839,-0.3578 -1.2042,0 -2.1657,0.2342 -2.8879,0.7008 -0.7189,0.4663 -1.08,1.0876 -1.08,1.8626 0,0.735 0.3716,1.33 1.1145,1.7867 0.7458,0.4566 1.7258,0.6857 2.9452,0.6857 0.4088,0 1.0199,-0.089 1.8392,-0.2653 0.2871,-0.061 0.5034,-0.1041 0.6482,-0.1304 l 0.1846,1.0865 c -0.1347,0.0229 -0.3322,0.0558 -0.5959,0.102 -0.9932,0.1763 -1.7467,0.2653 -2.2603,0.2653 -1.8887,0 -3.3798,-0.3163 -4.4708,-0.951 -1.0905,-0.6347 -1.6359,-1.4933 -1.6359,-2.5795 0,-1.0848 0.5482,-1.9599 1.6413,-2.6243 1.0933,-0.6642 2.5421,-0.9972 4.3495,-0.9972 0.5612,0 1.32,0.0873 2.2762,0.2605 0.2849,0.0493 0.4901,0.0839 0.6191,0.1071 z m 17.7689,0.6511 c -0.8954,0 -1.6177,0.2308 -2.1653,0.6922 -0.5483,0.4632 -0.8221,1.0781 -0.8221,1.848 0,0.773 0.271,1.3909 0.8164,1.8575 0.5457,0.4649 1.2699,0.6973 2.171,0.6973 0.8986,0 1.6257,-0.2341 2.1762,-0.7007 0.5505,-0.4663 0.8246,-1.0845 0.8246,-1.8541 0,-0.7665 -0.2741,-1.3814 -0.8246,-1.8446 -0.5505,-0.4631 -1.2776,-0.6956 -2.1762,-0.6956 z m 0,-1.0187 c 1.6098,0 2.8798,0.318 3.8067,0.9561 0.93,0.6378 1.3941,1.5114 1.3941,2.6223 0,1.1143 -0.4612,1.9879 -1.3859,2.6226 -0.9221,0.6347 -2.1946,0.951 -3.8149,0.951 -1.6177,0 -2.8851,-0.3163 -3.8069,-0.951 -0.9193,-0.6347 -1.3805,-1.5083 -1.3805,-2.6226 0,-1.1174 0.4612,-1.9927 1.3859,-2.6274 0.9221,-0.6347 2.1892,-0.951 3.8015,-0.951 z m 18.4669,0.1499 h 2.7164 l 4.0281,4.7951 c 0.1029,0.1318 0.2185,0.305 0.3452,0.5176 0.1239,0.2109 0.2529,0.455 0.3821,0.7285 -0.0898,-0.3246 -0.1556,-0.6214 -0.1975,-0.8884 -0.0451,-0.267 -0.0664,-0.496 -0.0664,-0.6857 v -4.4671 h 1.9605 v 6.8621 h -2.6768 l -4.1522,-4.907 c -0.1077,-0.1222 -0.216,-0.2821 -0.324,-0.4814 -0.1082,-0.2012 -0.2188,-0.4351 -0.3265,-0.7055 0.0842,0.4022 0.1499,0.7466 0.1976,1.0352 0.0499,0.2883 0.0737,0.4913 0.0737,0.6066 v 4.4521 h -1.9602 z m 21.8605,0 h 7.9795 v 1.0582 h -2.9239 v 5.8039 h -2.1682 v -5.8039 h -2.8874 z m 24.334,1.1441 -1.8388,3.0855 h 3.6068 z m -1.2671,-1.1441 h 2.6082 l 4.2389,6.8621 h -2.3315 l -0.9116,-1.6237 h -4.7764 l -0.951,1.6237 h -2.145 z m 21.2307,3.8143 v 2.0489 h 1.1591 c 0.7512,0 1.3223,-0.089 1.7152,-0.2653 0.3923,-0.1781 0.5899,-0.4352 0.5899,-0.773 0,-0.3297 -0.1817,-0.5803 -0.5479,-0.7518 -0.3637,-0.1732 -0.8983,-0.2588 -1.6042,-0.2588 z m 0,-2.8482 v 1.8921 h 1.0275 c 0.7087,0 1.2487,-0.0808 1.6175,-0.2407 0.3662,-0.1613 0.5505,-0.3954 0.5505,-0.7004 0,-0.3115 -0.1712,-0.5488 -0.5159,-0.7104 -0.3453,-0.1599 -0.8541,-0.2406 -1.5205,-0.2406 z m -2.1317,-0.9661 h 3.636 c 1.2617,0 2.2181,0.15 2.8715,0.4516 0.6537,0.3002 0.9802,0.7418 0.9802,1.3254 0,0.3725 -0.1766,0.6923 -0.5323,0.9559 -0.3555,0.2639 -0.8561,0.4501 -1.5041,0.5607 0.7558,0.0955 1.3329,0.2866 1.7363,0.5734 0.4002,0.2869 0.6001,0.6494 0.6001,1.088 0,0.6213 -0.3578,1.0944 -1.0772,1.4193 -0.7169,0.3245 -1.7708,0.4878 -3.1589,0.4878 h -3.5516 z m 21.028,0 h 2.1606 v 6.8621 h -2.1606 z m 15.9194,0 h 2.1608 v 5.8139 h 4.3997 v 1.0482 h -6.5605 z m 19.2682,0 h 2.1606 v 6.8621 h -2.1606 z m 18.0961,1.0188 v 4.7851 h 1.2486 c 1.2147,0 2.16,-0.2111 2.8321,-0.6329 0.6747,-0.4221 1.0117,-1.0123 1.0117,-1.772 0,-0.7733 -0.3347,-1.3617 -1.0063,-1.7688 -0.6718,-0.407 -1.6387,-0.6114 -2.8981,-0.6114 z m -2.1765,-1.0188 h 3.1405 c 0.9324,0 1.728,0.0397 2.3894,0.1205 0.6616,0.0808 1.2016,0.2044 1.6256,0.3725 0.7852,0.3115 1.3751,0.712 1.7706,1.2016 0.3923,0.4895 0.5898,1.0647 0.5898,1.724 0,0.661 -0.2001,1.2348 -0.5981,1.7226 -0.3977,0.4864 -0.9958,0.8853 -1.794,1.1951 -0.4476,0.1797 -1.0089,0.3132 -1.6858,0.3971 -0.6772,0.0859 -1.4992,0.1287 -2.4661,0.1287 h -2.9719 z m 26.9269,1.1441 -1.8388,3.0855 h 3.6068 z m -1.2671,-1.1441 h 2.6082 l 4.2389,6.8621 h -2.3315 l -0.9116,-1.6237 h -4.7764 l -0.951,1.6237 h -2.1447 z m 21.2757,1.0188 v 4.7851 h 1.2487 c 1.2146,0 2.16,-0.2111 2.8318,-0.6329 0.6747,-0.4221 1.0117,-1.0123 1.0117,-1.772 0,-0.7733 -0.3348,-1.3617 -1.006,-1.7688 -0.6721,-0.407 -1.6387,-0.6114 -2.8984,-0.6114 z m -2.1767,-1.0188 h 3.1408 c 0.9323,0 1.728,0.0397 2.3893,0.1205 0.6616,0.0808 1.2016,0.2044 1.6257,0.3725 0.7852,0.3115 1.3751,0.712 1.7705,1.2016 0.3923,0.4895 0.5899,1.0647 0.5899,1.724 0,0.661 -0.2004,1.2348 -0.5981,1.7226 -0.3977,0.4864 -0.9958,0.8853 -1.7941,1.1951 -0.4475,0.1797 -1.0088,0.3132 -1.6857,0.3971 -0.6775,0.0859 -1.4993,0.1287 -2.4662,0.1287 h -2.9721 z m 22.688,0 h 6.6996 v 0.9859 h -4.5391 v 1.8196 h 4.3024 v 1.0088 h -4.3024 v 2.0095 h 4.7024 v 1.0383 h -6.8629 z"
       style="fill:#003a81;fill-rule:evenodd"
       id="path264" />
    <g
       id="Layer1001">
      <path
         d="m 184.8107,337.4418 c 18.5162,0 29.0549,16.0938 23.5368,35.9394 -5.5226,19.8455 -25.0103,35.9388 -43.527,35.9388 -13.7662,0 -23.1197,-8.9 -24.7442,-21.6222 0.0136,-1.5619 0.2638,-3.1773 0.8729,-4.8287 5.2201,-14.1274 26.664,-22.9498 46.1642,-20.3475 l 0.2854,0.0365 v -3.4275 -1.127 -2.1494 c -2.0217,-0.5191 -4.1476,-0.9254 -6.3659,-1.2228 -11.3764,-1.5186 -23.0798,0.2593 -32.9633,4.3859 8.7028,-12.6989 22.9898,-21.5755 36.7411,-21.5755 z"
         style="fill:#70a5c5;fill-rule:evenodd"
         id="path266" />
      <path
         d="m 178.1327,324.7297 c 10.8755,0 19.6837,3.9797 25.5083,10.5927 -5.3109,-4.0015 -12.2273,-6.3023 -20.3549,-6.3023 -23.9754,0 -49.3914,20.0116 -56.7555,44.6882 -5.4774,18.352 0.5725,34.1209 13.8947,40.9995 -17.5898,-5.1997 -26.4808,-23.0282 -20.3103,-44.2208 7.3572,-25.2667 33.3381,-45.7573 58.0177,-45.7573 z"
         style="fill:#70a5c5;fill-rule:evenodd"
         id="path268" />
    </g>
  </g>
</svg>
